<?xml version="1.0" encoding="utf-8"?>
<!-- Generator: Adobe Illustrator 16.0.0, SVG Export Plug-In . SVG Version: 6.00 Build 0)  -->
<!DOCTYPE svg PUBLIC "-//W3C//DTD SVG 1.1//EN" "http://www.w3.org/Graphics/SVG/1.1/DTD/svg11.dtd">
<svg version="1.1" id="Layer_1" xmlns="http://www.w3.org/2000/svg" xmlns:xlink="http://www.w3.org/1999/xlink" x="0px" y="0px"
	 width="96px" height="96px" viewBox="0 0 96 96" enable-background="new 0 0 96 96" xml:space="preserve">
<g>
	<path d="M44.681,47.02c11.723-0.222,19.466-11.235,19.43-27.666C64.093,7.54,56.455,0.626,43.751,0.907
		c-12.232,0.28-18.98,7.047-18.859,18.908C25.077,36.887,32.61,47.241,44.681,47.02z"/>
	<rect x="68.973" y="69.377" width="16.796" height="3.558"/>
	<path d="M90.424,58.381H71.041c-0.869-1.063-1.977-1.849-3.203-2.327L57.333,51.3l-4.302-3.898l-8.53,7.789l-8.339-7.859
		l-4.868,4.105L21.162,56.1c-1.5,0.617-2.83,1.679-3.725,3.177L4.761,80.474l-2.652,4.239h38.925v6.922
		c0,1.915,1.552,3.466,3.466,3.466h45.924c1.914,0,3.466-1.552,3.466-3.466V61.847C93.891,59.933,92.338,58.381,90.424,58.381z
		 M90.487,91.634H44.564V61.847h45.923V91.634z"/>
	<rect x="49.859" y="68.55" width="12.908" height="16.548"/>
	<rect x="68.973" y="77.735" width="10.26" height="3.557"/>
</g>
</svg>
